<svg xmlns="http://www.w3.org/2000/svg">
  <symbol id="scene" viewBox="0 0 24 24"><path d="M3.5 17.5 8 10l3.2 4.5 2.3-3 7 6M3 20h18"/><path d="M15.5 6.5a2 2 0 1 0 0 .1z"/></symbol>
  <symbol id="mail" viewBox="0 0 24 24"><path d="M3 6.5h18v12H3zM3 7l9 7 9-7"/><circle cx="18" cy="5" r="2.5"/></symbol>
  <symbol id="onsite" viewBox="0 0 24 24"><path d="M4 8V4h4M16 4h4v4M20 16v4h-4M8 20H4v-4"/><path d="M7 12s2-3.5 5-3.5 5 3.5 5 3.5-2 3.5-5 3.5S7 12 7 12z"/><circle cx="12" cy="12" r="1.5"/></symbol>
  <symbol id="journal" viewBox="0 0 24 24"><path d="M4 4.5h6.5A2.5 2.5 0 0 1 13 7v13a3 3 0 0 0-3-3H4zM20 4.5h-4.5A2.5 2.5 0 0 0 13 7v13a3 3 0 0 1 3-3h4z"/></symbol>
  <symbol id="map" viewBox="0 0 24 24"><path d="m3 6 5-2 8 3 5-2v13l-5 2-8-3-5 2zM8 4v13M16 7v13"/><path d="M10.5 9.5c1.5-1.5 3.8-.7 3.8 1 0 1.8-1.8 2-3.8 4"/></symbol>
  <symbol id="settings" viewBox="0 0 24 24"><path d="M4 7h10M18 7h2M4 17h3M11 17h9M14 5v4M7 15v4"/></symbol>
  <symbol id="camera" viewBox="0 0 24 24"><path d="M3 7.5h4l1.5-2h7l1.5 2h4v11H3z"/><circle cx="12" cy="13" r="3.5"/></symbol>
  <symbol id="mic" viewBox="0 0 24 24"><rect x="9" y="3" width="6" height="11" rx="3"/><path d="M6 11a6 6 0 0 0 12 0M12 17v4M9 21h6"/></symbol>
  <symbol id="play" viewBox="0 0 24 24"><circle cx="12" cy="12" r="9"/><path d="m10 8 6 4-6 4z"/></symbol>
  <symbol id="pause" viewBox="0 0 24 24"><circle cx="12" cy="12" r="9"/><path d="M10 9v6M14 9v6"/></symbol>
  <symbol id="arrow" viewBox="0 0 24 24"><path d="M5 12h14M14 7l5 5-5 5"/></symbol>
  <symbol id="back" viewBox="0 0 24 24"><path d="m15 5-7 7 7 7"/></symbol>
  <symbol id="close" viewBox="0 0 24 24"><path d="m6 6 12 12M18 6 6 18"/></symbol>
  <symbol id="pin" viewBox="0 0 24 24"><path d="M12 21s6-5.5 6-11a6 6 0 1 0-12 0c0 5.5 6 11 6 11z"/><circle cx="12" cy="10" r="2"/></symbol>
  <symbol id="cloud" viewBox="0 0 24 24"><path d="M5 16h13a3 3 0 0 0 0-6 6 6 0 0 0-11.5-1A3.5 3.5 0 0 0 5 16zM8 19l-1 2M13 19l-1 2M18 19l-1 2"/></symbol>
</svg>
